<svg width="37" height="49" viewBox="0 0 37 49" fill="none" xmlns="http://www.w3.org/2000/svg">
<path d="M32.25 16.3333H29.9584V11.75C29.9584 5.42496 24.825 0.291626 18.5 0.291626C12.175 0.291626 7.04169 5.42496 7.04169 11.75V16.3333H4.75002C2.22919 16.3333 0.166687 18.3958 0.166687 20.9166V43.8333C0.166687 46.3541 2.22919 48.4166 4.75002 48.4166H32.25C34.7709 48.4166 36.8334 46.3541 36.8334 43.8333V20.9166C36.8334 18.3958 34.7709 16.3333 32.25 16.3333ZM18.5 36.9583C15.9792 36.9583 13.9167 34.8958 13.9167 32.375C13.9167 29.8541 15.9792 27.7916 18.5 27.7916C21.0209 27.7916 23.0834 29.8541 23.0834 32.375C23.0834 34.8958 21.0209 36.9583 18.5 36.9583ZM25.6042 16.3333H11.3959V11.75C11.3959 7.83121 14.5813 4.64579 18.5 4.64579C22.4188 4.64579 25.6042 7.83121 25.6042 11.75V16.3333Z" fill="#3D3D3D"/>
</svg>
