<svg width="35" height="27" viewBox="0 0 35 27" fill="none" xmlns="http://www.w3.org/2000/svg">
<path d="M31.7188 0C33.5303 0 35 1.46904 35 3.28125C35 4.31348 34.5146 5.28418 33.6875 5.90625L18.8125 17.0625C18.0332 17.6436 16.9668 17.6436 16.1875 17.0625L1.3125 5.90625C0.48624 5.28418 0 4.31348 0 3.28125C0 1.46904 1.46904 0 3.28125 0H31.7188ZM14.875 18.8125C16.4336 19.9814 18.5664 19.9814 20.125 18.8125L35 7.65625V21.875C35 24.2881 33.0381 26.25 30.625 26.25H4.375C1.9585 26.25 0 24.2881 0 21.875V7.65625L14.875 18.8125Z" fill="#F0F0F0"/>
</svg>
