<svg width="35" height="35" viewBox="0 0 35 35" fill="none" xmlns="http://www.w3.org/2000/svg">
<path d="M27.7083 0H7.29167C3.26521 0 0 3.26521 0 7.29167V27.7083C0 31.7348 3.26521 35 7.29167 35H27.7083C31.7363 35 35 31.7348 35 27.7083V7.29167C35 3.26521 31.7363 0 27.7083 0ZM21.1954 28.5688C20.6048 28.6825 20.4167 28.3194 20.4167 28.0087V24.8077C20.4167 23.7183 20.0346 23.0096 19.6146 22.6479C22.2133 22.3592 24.9433 21.3719 24.9433 16.8919C24.9433 15.6173 24.4883 14.576 23.7431 13.7608C23.8627 13.4663 24.2623 12.2792 23.6279 10.6735C23.6279 10.6735 22.6494 10.36 20.4225 11.8694C19.4892 11.6069 18.4917 11.48 17.5 11.4742C16.5083 11.4785 15.5108 11.6069 14.579 11.8665C12.3506 10.3571 11.3706 10.6706 11.3706 10.6706C10.7377 12.2777 11.1373 13.4633 11.2583 13.7594C10.5117 14.576 10.0567 15.6158 10.0567 16.8904C10.0567 21.3587 12.7794 22.3606 15.3723 22.6567C15.0383 22.9483 14.7365 23.4617 14.6315 24.2171C13.965 24.5146 12.2777 25.0294 11.2365 23.2458C11.2365 23.2458 10.6196 22.1258 9.44708 22.0427C9.44708 22.0427 8.30958 22.0281 9.36687 22.7529C9.36687 22.7529 10.1325 23.1117 10.6633 24.4592C10.6633 24.4592 11.3385 26.5417 14.5833 25.8358V28.0073C14.5833 28.315 14.3952 28.6767 13.8133 28.5688C9.17583 27.0273 5.83333 22.6537 5.83333 17.5C5.83333 11.0556 11.0571 5.83333 17.5 5.83333C23.9429 5.83333 29.1667 11.0556 29.1667 17.5C29.1667 22.6523 25.8285 27.0244 21.1954 28.5688Z" fill="#F0F0F0"/>
</svg>
