<svg width="185" height="38" viewBox="0 0 185 38" fill="none" xmlns="http://www.w3.org/2000/svg">
<path d="M22.8047 16.7734V22.2578H4.99219V16.7734H22.8047ZM7.07812 2.875V37H0.046875V2.875H7.07812ZM27.8203 2.875V37H20.8125V2.875H27.8203Z" fill="#141414"/>
<path d="M48.5156 30.9297V11.6406H55.2656V37H48.9141L48.5156 30.9297ZM49.2656 25.7266L51.2578 25.6797C51.2578 27.3672 51.0625 28.9375 50.6719 30.3906C50.2812 31.8281 49.6953 33.0781 48.9141 34.1406C48.1328 35.1875 47.1484 36.0078 45.9609 36.6016C44.7734 37.1797 43.375 37.4688 41.7656 37.4688C40.5312 37.4688 39.3906 37.2969 38.3438 36.9531C37.3125 36.5938 36.4219 36.0391 35.6719 35.2891C34.9375 34.5234 34.3594 33.5469 33.9375 32.3594C33.5312 31.1562 33.3281 29.7109 33.3281 28.0234V11.6406H40.0781V28.0703C40.0781 28.8203 40.1641 29.4531 40.3359 29.9688C40.5234 30.4844 40.7812 30.9062 41.1094 31.2344C41.4375 31.5625 41.8203 31.7969 42.2578 31.9375C42.7109 32.0781 43.2109 32.1484 43.7578 32.1484C45.1484 32.1484 46.2422 31.8672 47.0391 31.3047C47.8516 30.7422 48.4219 29.9766 48.75 29.0078C49.0938 28.0234 49.2656 26.9297 49.2656 25.7266Z" fill="#141414"/>
<path d="M74.1328 29.9922C74.1328 29.5078 73.9922 29.0703 73.7109 28.6797C73.4297 28.2891 72.9062 27.9297 72.1406 27.6016C71.3906 27.2578 70.3047 26.9453 68.8828 26.6641C67.6016 26.3828 66.4062 26.0312 65.2969 25.6094C64.2031 25.1719 63.25 24.6484 62.4375 24.0391C61.6406 23.4297 61.0156 22.7109 60.5625 21.8828C60.1094 21.0391 59.8828 20.0781 59.8828 19C59.8828 17.9375 60.1094 16.9375 60.5625 16C61.0312 15.0625 61.6953 14.2344 62.5547 13.5156C63.4297 12.7812 64.4922 12.2109 65.7422 11.8047C67.0078 11.3828 68.4297 11.1719 70.0078 11.1719C72.2109 11.1719 74.1016 11.5234 75.6797 12.2266C77.2734 12.9297 78.4922 13.8984 79.3359 15.1328C80.1953 16.3516 80.625 17.7422 80.625 19.3047H73.875C73.875 18.6484 73.7344 18.0625 73.4531 17.5469C73.1875 17.0156 72.7656 16.6016 72.1875 16.3047C71.625 15.9922 70.8906 15.8359 69.9844 15.8359C69.2344 15.8359 68.5859 15.9688 68.0391 16.2344C67.4922 16.4844 67.0703 16.8281 66.7734 17.2656C66.4922 17.6875 66.3516 18.1562 66.3516 18.6719C66.3516 19.0625 66.4297 19.4141 66.5859 19.7266C66.7578 20.0234 67.0312 20.2969 67.4062 20.5469C67.7812 20.7969 68.2656 21.0312 68.8594 21.25C69.4688 21.4531 70.2188 21.6406 71.1094 21.8125C72.9375 22.1875 74.5703 22.6797 76.0078 23.2891C77.4453 23.8828 78.5859 24.6953 79.4297 25.7266C80.2734 26.7422 80.6953 28.0781 80.6953 29.7344C80.6953 30.8594 80.4453 31.8906 79.9453 32.8281C79.4453 33.7656 78.7266 34.5859 77.7891 35.2891C76.8516 35.9766 75.7266 36.5156 74.4141 36.9062C73.1172 37.2812 71.6562 37.4688 70.0312 37.4688C67.6719 37.4688 65.6719 37.0469 64.0312 36.2031C62.4062 35.3594 61.1719 34.2891 60.3281 32.9922C59.5 31.6797 59.0859 30.3359 59.0859 28.9609H65.4844C65.5156 29.8828 65.75 30.625 66.1875 31.1875C66.6406 31.75 67.2109 32.1562 67.8984 32.4062C68.6016 32.6562 69.3594 32.7812 70.1719 32.7812C71.0469 32.7812 71.7734 32.6641 72.3516 32.4297C72.9297 32.1797 73.3672 31.8516 73.6641 31.4453C73.9766 31.0234 74.1328 30.5391 74.1328 29.9922Z" fill="#141414"/>
<path d="M97.5 11.6406V16.4219H82.7344V11.6406H97.5ZM86.3906 5.38281H93.1406V29.3594C93.1406 30.0938 93.2344 30.6562 93.4219 31.0469C93.625 31.4375 93.9219 31.7109 94.3125 31.8672C94.7031 32.0078 95.1953 32.0781 95.7891 32.0781C96.2109 32.0781 96.5859 32.0625 96.9141 32.0312C97.2578 31.9844 97.5469 31.9375 97.7812 31.8906L97.8047 36.8594C97.2266 37.0469 96.6016 37.1953 95.9297 37.3047C95.2578 37.4141 94.5156 37.4688 93.7031 37.4688C92.2188 37.4688 90.9219 37.2266 89.8125 36.7422C88.7188 36.2422 87.875 35.4453 87.2812 34.3516C86.6875 33.2578 86.3906 31.8203 86.3906 30.0391V5.38281Z" fill="#141414"/>
<path d="M115.031 31.2812V19.9844C115.031 19.1719 114.898 18.4766 114.633 17.8984C114.367 17.3047 113.953 16.8438 113.391 16.5156C112.844 16.1875 112.133 16.0234 111.258 16.0234C110.508 16.0234 109.859 16.1562 109.312 16.4219C108.766 16.6719 108.344 17.0391 108.047 17.5234C107.75 17.9922 107.602 18.5469 107.602 19.1875H100.852C100.852 18.1094 101.102 17.0859 101.602 16.1172C102.102 15.1484 102.828 14.2969 103.781 13.5625C104.734 12.8125 105.867 12.2266 107.18 11.8047C108.508 11.3828 109.992 11.1719 111.633 11.1719C113.602 11.1719 115.352 11.5 116.883 12.1562C118.414 12.8125 119.617 13.7969 120.492 15.1094C121.383 16.4219 121.828 18.0625 121.828 20.0312V30.8828C121.828 32.2734 121.914 33.4141 122.086 34.3047C122.258 35.1797 122.508 35.9453 122.836 36.6016V37H116.016C115.688 36.3125 115.438 35.4531 115.266 34.4219C115.109 33.375 115.031 32.3281 115.031 31.2812ZM115.922 21.5547L115.969 25.375H112.195C111.305 25.375 110.531 25.4766 109.875 25.6797C109.219 25.8828 108.68 26.1719 108.258 26.5469C107.836 26.9062 107.523 27.3281 107.32 27.8125C107.133 28.2969 107.039 28.8281 107.039 29.4062C107.039 29.9844 107.172 30.5078 107.438 30.9766C107.703 31.4297 108.086 31.7891 108.586 32.0547C109.086 32.3047 109.672 32.4297 110.344 32.4297C111.359 32.4297 112.242 32.2266 112.992 31.8203C113.742 31.4141 114.32 30.9141 114.727 30.3203C115.148 29.7266 115.367 29.1641 115.383 28.6328L117.164 31.4922C116.914 32.1328 116.57 32.7969 116.133 33.4844C115.711 34.1719 115.172 34.8203 114.516 35.4297C113.859 36.0234 113.07 36.5156 112.148 36.9062C111.227 37.2812 110.133 37.4688 108.867 37.4688C107.258 37.4688 105.797 37.1484 104.484 36.5078C103.188 35.8516 102.156 34.9531 101.391 33.8125C100.641 32.6562 100.266 31.3438 100.266 29.875C100.266 28.5469 100.516 27.3672 101.016 26.3359C101.516 25.3047 102.25 24.4375 103.219 23.7344C104.203 23.0156 105.43 22.4766 106.898 22.1172C108.367 21.7422 110.07 21.5547 112.008 21.5547H115.922Z" fill="#141414"/>
<path d="M135.633 37H128.836V9.39062C128.836 7.46875 129.211 5.85156 129.961 4.53906C130.727 3.21094 131.797 2.21094 133.172 1.53906C134.562 0.851562 136.211 0.507812 138.117 0.507812C138.742 0.507812 139.344 0.554688 139.922 0.648438C140.5 0.726562 141.062 0.828125 141.609 0.953125L141.539 6.03906C141.242 5.96094 140.93 5.90625 140.602 5.875C140.273 5.84375 139.891 5.82812 139.453 5.82812C138.641 5.82812 137.945 5.96875 137.367 6.25C136.805 6.51562 136.375 6.91406 136.078 7.44531C135.781 7.97656 135.633 8.625 135.633 9.39062V37ZM140.695 11.6406V16.4219H125.062V11.6406H140.695Z" fill="#141414"/>
<path d="M157.922 31.2812V19.9844C157.922 19.1719 157.789 18.4766 157.523 17.8984C157.258 17.3047 156.844 16.8438 156.281 16.5156C155.734 16.1875 155.023 16.0234 154.148 16.0234C153.398 16.0234 152.75 16.1562 152.203 16.4219C151.656 16.6719 151.234 17.0391 150.938 17.5234C150.641 17.9922 150.492 18.5469 150.492 19.1875H143.742C143.742 18.1094 143.992 17.0859 144.492 16.1172C144.992 15.1484 145.719 14.2969 146.672 13.5625C147.625 12.8125 148.758 12.2266 150.07 11.8047C151.398 11.3828 152.883 11.1719 154.523 11.1719C156.492 11.1719 158.242 11.5 159.773 12.1562C161.305 12.8125 162.508 13.7969 163.383 15.1094C164.273 16.4219 164.719 18.0625 164.719 20.0312V30.8828C164.719 32.2734 164.805 33.4141 164.977 34.3047C165.148 35.1797 165.398 35.9453 165.727 36.6016V37H158.906C158.578 36.3125 158.328 35.4531 158.156 34.4219C158 33.375 157.922 32.3281 157.922 31.2812ZM158.812 21.5547L158.859 25.375H155.086C154.195 25.375 153.422 25.4766 152.766 25.6797C152.109 25.8828 151.57 26.1719 151.148 26.5469C150.727 26.9062 150.414 27.3281 150.211 27.8125C150.023 28.2969 149.93 28.8281 149.93 29.4062C149.93 29.9844 150.062 30.5078 150.328 30.9766C150.594 31.4297 150.977 31.7891 151.477 32.0547C151.977 32.3047 152.562 32.4297 153.234 32.4297C154.25 32.4297 155.133 32.2266 155.883 31.8203C156.633 31.4141 157.211 30.9141 157.617 30.3203C158.039 29.7266 158.258 29.1641 158.273 28.6328L160.055 31.4922C159.805 32.1328 159.461 32.7969 159.023 33.4844C158.602 34.1719 158.062 34.8203 157.406 35.4297C156.75 36.0234 155.961 36.5156 155.039 36.9062C154.117 37.2812 153.023 37.4688 151.758 37.4688C150.148 37.4688 148.688 37.1484 147.375 36.5078C146.078 35.8516 145.047 34.9531 144.281 33.8125C143.531 32.6562 143.156 31.3438 143.156 29.875C143.156 28.5469 143.406 27.3672 143.906 26.3359C144.406 25.3047 145.141 24.4375 146.109 23.7344C147.094 23.0156 148.32 22.4766 149.789 22.1172C151.258 21.7422 152.961 21.5547 154.898 21.5547H158.812Z" fill="#141414"/>
<path d="M176.672 17.1719V37H169.922V11.6406H176.273L176.672 17.1719ZM184.312 11.4766L184.195 17.7344C183.867 17.6875 183.469 17.6484 183 17.6172C182.547 17.5703 182.133 17.5469 181.758 17.5469C180.805 17.5469 179.977 17.6719 179.273 17.9219C178.586 18.1562 178.008 18.5078 177.539 18.9766C177.086 19.4453 176.742 20.0156 176.508 20.6875C176.289 21.3594 176.164 22.125 176.133 22.9844L174.773 22.5625C174.773 20.9219 174.938 19.4141 175.266 18.0391C175.594 16.6484 176.07 15.4375 176.695 14.4062C177.336 13.375 178.117 12.5781 179.039 12.0156C179.961 11.4531 181.016 11.1719 182.203 11.1719C182.578 11.1719 182.961 11.2031 183.352 11.2656C183.742 11.3125 184.062 11.3828 184.312 11.4766Z" fill="#141414"/>
</svg>
