<svg width="86" height="75" viewBox="0 0 86 75" fill="none" xmlns="http://www.w3.org/2000/svg">
<path d="M70.0074 24.3046C69.1035 24.0033 68.1995 23.7187 67.2955 23.4509C67.4462 22.8315 67.5801 22.2121 67.714 21.5927C69.7731 11.6156 68.4171 3.59704 63.847 0.952097C59.4444 -1.57567 52.2628 1.05254 44.9976 7.38032C44.2778 7.99971 43.5747 8.65258 42.9051 9.30544C42.4531 8.8702 41.9844 8.43496 41.5156 8.01645C33.8989 1.25342 26.2653 -1.59241 21.6953 1.06928C17.3093 3.61379 16.0036 11.1636 17.845 20.6051C18.0292 21.5425 18.2301 22.4632 18.4644 23.4007C17.393 23.702 16.3384 24.0368 15.3507 24.3883C6.41149 27.4853 0 32.3734 0 37.4289C0 42.6519 6.82999 47.8916 16.1208 51.0722C16.8741 51.3233 17.6274 51.5744 18.3975 51.792C18.1464 52.7964 17.9287 53.7841 17.7278 54.8052C15.9701 64.096 17.3428 71.4617 21.7288 73.9895C26.2486 76.601 33.8486 73.9225 41.2478 67.4441C41.8337 66.9251 42.4196 66.3895 43.0055 65.8203C43.7421 66.5401 44.5121 67.2265 45.2822 67.8961C52.447 74.0564 59.5281 76.5507 63.8973 74.023C68.4171 71.4115 69.8902 63.4934 67.9819 53.8511C67.8312 53.1145 67.6638 52.3612 67.4797 51.5911C68.0153 51.4405 68.5343 51.2731 69.0532 51.1057C78.7123 47.9083 85.7097 42.7356 85.7097 37.4289C85.7097 32.3567 79.1141 27.4351 70.0074 24.3046ZM47.358 10.0922C53.5853 4.66842 59.3941 2.54241 62.0391 4.06577C64.8682 5.68957 65.9563 12.2517 64.1818 20.8729C64.0647 21.4421 63.9475 21.9945 63.7968 22.5469C60.0805 21.7099 56.314 21.1073 52.5307 20.7725C50.3545 17.6588 47.9774 14.679 45.3994 11.8834C46.0522 11.264 46.6884 10.6781 47.358 10.0922ZM27.9896 46.1171C28.8433 47.5735 29.7138 49.0299 30.6345 50.4528C28.0231 50.1682 25.4283 49.7497 22.8671 49.1973C23.6037 46.7867 24.5244 44.2924 25.5957 41.7479C26.3658 43.221 27.1526 44.6774 27.9896 46.1171ZM22.9173 25.9787C25.3279 25.443 27.8891 25.0077 30.5508 24.6729C29.6636 26.0624 28.7931 27.4853 27.9728 28.9249C27.1526 30.3478 26.349 31.8042 25.5957 33.2774C24.5411 30.7831 23.6539 28.339 22.9173 25.9787ZM27.5041 37.5126C28.609 35.2025 29.8143 32.9426 31.0865 30.7161C32.3588 28.4897 33.7315 26.3302 35.1711 24.2042C37.6821 24.0201 40.2434 23.9196 42.8549 23.9196C45.4663 23.9196 48.0443 24.0201 50.5386 24.2042C51.9615 26.3135 53.3175 28.4729 54.6065 30.6827C55.8955 32.8924 57.1007 35.1523 58.2391 37.4457C57.1175 39.7558 55.9122 42.0325 54.6232 44.2757C53.3509 46.5021 51.995 48.6616 50.5721 50.8043C48.0778 50.9885 45.4831 51.0722 42.8549 51.0722C40.2266 51.0722 37.6821 50.9885 35.2213 50.8378C33.7649 48.7118 32.3922 46.5356 31.1033 44.3092C29.8143 42.0827 28.6257 39.8228 27.5041 37.5126ZM57.7369 46.0836C58.5906 44.6105 59.3941 43.1206 60.1809 41.614C61.2523 44.0413 62.1898 46.5021 63.01 49.0299C60.4153 49.6158 57.7871 50.0678 55.1421 50.3691C56.0461 48.9629 56.8999 47.5233 57.7369 46.0836ZM60.1475 33.2774C59.3607 31.8042 58.5571 30.3311 57.7201 28.8915C56.8999 27.4685 56.0461 26.0624 55.1589 24.6729C57.8541 25.0077 60.432 25.4597 62.8426 26.0121C62.0726 28.4897 61.1686 30.9003 60.1475 33.2774ZM42.8883 14.4447C44.6461 16.3531 46.3033 18.3619 47.8434 20.4377C44.5289 20.287 41.1976 20.287 37.883 20.4377C39.5236 18.2782 41.2143 16.2694 42.8883 14.4447ZM23.4697 4.18295C26.2821 2.54241 32.5262 4.88604 39.1051 10.7116C39.5236 11.0799 39.9421 11.4817 40.3773 11.8834C37.7826 14.679 35.3887 17.6588 33.1958 20.7725C29.4125 21.1073 25.6627 21.6932 21.9464 22.5134C21.7288 21.6597 21.5446 20.7892 21.3605 19.9187C19.7869 11.8165 20.8248 5.70631 23.4697 4.18295ZM19.3684 48.3101C18.6653 48.1092 17.979 47.8916 17.2926 47.6572C13.7269 46.5356 9.67582 44.7611 6.74629 42.4343C5.05553 41.2624 3.9172 39.4545 3.59914 37.4289C3.59914 34.3655 8.88903 30.4483 16.5226 27.7866C17.4767 27.4518 18.4477 27.1505 19.4186 26.8659C20.5569 30.4985 21.9296 34.0642 23.5199 37.5126C21.9129 41.0113 20.5235 44.6272 19.3684 48.3101ZM38.8874 64.7154C36.1253 67.2432 32.9279 69.252 29.446 70.6247C27.5878 71.5119 25.4451 71.5956 23.5367 70.8423C20.875 69.3022 19.7701 63.393 21.2768 55.4414C21.4609 54.5039 21.6618 53.5665 21.8962 52.6458C25.646 53.4493 29.4292 54.0017 33.2627 54.2863C35.4724 57.4167 37.8998 60.4132 40.4945 63.2256C39.9588 63.7445 39.4231 64.2467 38.8874 64.7154ZM42.9888 60.6476C41.2813 58.8061 39.5738 56.7638 37.9165 54.5709C39.5236 54.6378 41.1808 54.6713 42.8549 54.6713C44.5791 54.6713 46.2699 54.6378 47.9439 54.5541C46.4038 56.6801 44.7465 58.7057 42.9888 60.6476ZM64.8682 65.6696C64.7175 67.7119 63.7131 69.6203 62.1061 70.9093C59.4444 72.4494 53.7695 70.4406 47.6425 65.1842C46.9395 64.5815 46.2364 63.9286 45.5165 63.259C48.0778 60.4299 50.4382 57.4335 52.5809 54.2863C56.4144 53.9682 60.2312 53.3823 63.9977 52.5286C64.1651 53.2149 64.3158 53.9013 64.4497 54.5709C65.27 58.1868 65.4039 61.9533 64.8682 65.6696ZM67.9149 47.6739C67.4462 47.8246 66.9775 47.9753 66.492 48.1092C65.3202 44.4598 63.8805 40.8942 62.2232 37.4289C63.8303 34.0139 65.1863 30.4985 66.3246 26.8994C67.1951 27.1505 68.0321 27.4183 68.8356 27.6862C76.6365 30.3646 82.1106 34.3487 82.1106 37.3955C82.1106 40.6765 76.2682 44.9118 67.9149 47.6739ZM42.8549 45.1629C47.0901 45.1629 50.5219 41.7312 50.5219 37.4959C50.5219 33.2606 47.0901 29.8289 42.8549 29.8289C38.6196 29.8289 35.1879 33.2606 35.1879 37.4959C35.1879 41.7312 38.6196 45.1629 42.8549 45.1629Z" fill="#3D3D3D"/>
</svg>
